<?xml version="1.0" encoding="utf-8"?>

<!DOCTYPE svg PUBLIC "-//W3C//DTD SVG 1.1//EN" "http://www.w3.org/Graphics/SVG/1.1/DTD/svg11.dtd">
<!-- Uploaded to: SVG Repo, www.svgrepo.com, Generator: SVG Repo Mixer Tools -->
<svg height="800px" width="800px" version="1.1" id="_x32_" xmlns="http://www.w3.org/2000/svg" xmlns:xlink="http://www.w3.org/1999/xlink" 
	 viewBox="0 0 512 512"  xml:space="preserve" fill='white'>

<g fill='white'>
	<path class="st0" d="M67.501,458.65c0,10.304,8.358,18.663,18.671,18.663h51.555c10.322,0,18.68-8.359,18.68-18.663v-38.402H67.501
		V458.65z"/>
	<path class="st0" d="M355.584,458.65c0,10.304,8.359,18.663,18.688,18.663h51.555c10.305,0,18.664-8.359,18.664-18.663v-38.402
		h-88.907V458.65z" fill='white'/>
	<path class="st0" d="M451.831,216.465l-26.209-95c-14.171-51.268-60.809-86.779-113.982-86.779H200.352
		c-53.182,0-99.81,35.512-113.966,86.779l-26.217,95C24.985,229.939,0,264.022,0,303.943c0,51.728,41.932,93.668,93.66,93.668
		h324.655c51.728,0,93.685-41.941,93.685-93.668C512,264.022,487.006,229.956,451.831,216.465z M93.66,344.241
		c-22.267,0-40.306-18.047-40.306-40.298c0-22.276,18.039-40.323,40.306-40.323c22.268,0,40.323,18.048,40.323,40.323
		C133.983,326.194,115.928,344.241,93.66,344.241z M368.582,172.668c-1.535,2.011-3.916,3.202-6.446,3.202H149.863
		c-2.538,0-4.919-1.191-6.446-3.202c-1.535-2.02-2.053-4.631-1.363-7.078l9.54-34.567c7.554-27.4,32.679-46.539,61.096-46.539
		h86.616c28.409,0,53.534,19.14,61.096,46.522l9.533,34.584C370.626,168.038,370.125,170.649,368.582,172.668z M418.315,344.241
		c-22.251,0-40.315-18.047-40.315-40.298c0-22.276,18.064-40.323,40.315-40.323c22.276,0,40.323,18.048,40.323,40.323
		C458.638,326.194,440.59,344.241,418.315,344.241z" fill='white'/>
</g>
</svg>