<?xml version="1.0" encoding="iso-8859-1"?>
<!-- Uploaded to: SVG Repo, www.svgrepo.com, Generator: SVG Repo Mixer Tools -->
<svg fill="white" height="800px" width="800px" version="1.1" id="Layer_1" xmlns="http://www.w3.org/2000/svg" xmlns:xlink="http://www.w3.org/1999/xlink" 
	 viewBox="0 0 496 496" xml:space="preserve">
<g>
	<g>
		<path d="M419.2,108.8H78.4c-9.6,0-16,6.4-16,16v246.4c0,9.6,6.4,16,16,16h339.2c9.6,0,16-6.4,17.6-14.4v-248
			C435.2,115.2,428.8,108.8,419.2,108.8z M403.2,355.2H94.4V140.8h308.8V355.2z"/>
	</g>
</g>
<g>
	<g>
		<path d="M371.2,310.4V187.2c0-9.6-6.4-16-16-16h-216c-9.6,0-16,6.4-16,16v123.2c0,9.6,6.4,16,16,16h217.6
			C364.8,326.4,372.8,318.4,371.2,310.4z M339.2,294.4h-184v-91.2h184V294.4z"/>
	</g>
</g>
<g>
	<g>
		<path d="M480,108.8h-62.4c-9.6,0-16,6.4-16,16c0,9.6,6.4,16,16,16H480c8,0,16-6.4,16-16S489.6,108.8,480,108.8z"/>
	</g>
</g>
<g>
	<g>
		<path d="M480,355.2h-62.4c-9.6,0-16,6.4-16,16c0,9.6,6.4,16,16,16H480c8,0,16-6.4,16-16C496,361.6,489.6,355.2,480,355.2z"/>
	</g>
</g>
<g>
	<g>
		<path d="M62.4,108.8H16c-9.6,0-16,6.4-16,16c0,9.6,6.4,16,16,16h46.4c8,0,16-6.4,16-16S72,108.8,62.4,108.8z"/>
	</g>
</g>
<g>
	<g>
		<path d="M62.4,355.2H16c-9.6,0-16,6.4-16,16c0,9.6,6.4,16,16,16h46.4c8,0,16-6.4,16-16C78.4,361.6,72,355.2,62.4,355.2z"/>
	</g>
</g>
<g>
	<g>
		<path d="M78.4,46.4c-9.6,0-16,6.4-16,16v62.4c0,9.6,6.4,16,16,16c8,0,16-8,16-16V62.4C94.4,52.8,88,46.4,78.4,46.4z"/>
	</g>
</g>
<g>
	<g>
		<path d="M417.6,46.4c-9.6,0-16,6.4-16,16v62.4c0,9.6,6.4,16,16,16c9.6,0,16-8,16-16V62.4C433.6,52.8,427.2,46.4,417.6,46.4z"/>
	</g>
</g>
<g>
	<g>
		<path d="M78.4,355.2c-9.6,0-16,6.4-16,16v62.4c0,9.6,6.4,16,16,16c8,0,16-6.4,16-16v-62.4C94.4,361.6,88,355.2,78.4,355.2z"/>
	</g>
</g>
<g>
	<g>
		<path d="M417.6,355.2c-9.6,0-16,6.4-16,16v62.4c0,9.6,6.4,16,16,16c9.6,0,16-6.4,16-16v-62.4C433.6,361.6,427.2,355.2,417.6,355.2
			z"/>
	</g>
</g>
</svg>