<?xml version="1.0" encoding="iso-8859-1"?>
<!-- Uploaded to: SVG Repo, www.svgrepo.com, Generator: SVG Repo Mixer Tools -->
<svg fill="white" height="800px" width="800px" version="1.1" id="Layer_1" xmlns="http://www.w3.org/2000/svg" xmlns:xlink="http://www.w3.org/1999/xlink" 
	 viewBox="0 0 512.003 512.003" xml:space="preserve">
<g>
	<g>
		<path d="M487.638,241.176c-0.107-0.747-0.533-1.387-0.725-2.112c17.92-97.877-59.904-223.381-63.509-229.099
			c-5.056-8.043-14.827-11.755-23.979-9.131c-9.131,2.624-15.424,10.987-15.424,20.501c0,21.184-2.005,39.765-5.355,56.213
			c-36.736-22.528-79.232-34.88-122.645-34.88c-43.392,0-85.888,12.352-122.624,34.88c-3.349-16.448-5.376-35.029-5.376-56.213
			c0-9.515-6.272-17.877-15.403-20.501c-9.13-2.623-18.922,1.089-23.978,9.131c-3.606,5.718-81.43,131.222-63.51,229.099
			c-0.192,0.725-0.619,1.365-0.725,2.112c-2.048,13.205-3.051,25.045-3.051,36.16c0,86.997,47.701,162.923,118.229,203.435
			c0.597,0.32,1.088,0.789,1.707,1.067c33.963,19.115,73.067,30.165,114.731,30.165c41.685,0,80.789-11.051,114.752-30.165
			c0.64-0.277,1.109-0.747,1.728-1.067c70.507-40.533,118.187-116.437,118.187-203.435
			C490.668,266.221,489.686,254.381,487.638,241.176z M67.286,312.686c11.072,9.067,24.043,16.597,39.061,22.443
			c5.013,1.984,10.24,3.755,15.68,5.355c1.408,0.405,3.52,0.981,5.973,1.621v77.993C97.174,392.407,75.201,355.031,67.286,312.686z
			 M305.75,186.776c-17.536,9.792-28.416,28.651-28.416,49.237v0.021v92.117l-21.333,10.667l-21.333-10.667v-92.117v-0.021
			c0-20.587-10.859-39.445-28.395-49.237c-15.147-8.491-41.6-28.032-59.392-67.371c63.872-44.117,154.389-44.117,218.261,0
			C347.35,158.765,320.897,178.285,305.75,186.776z M384.001,420.099v-77.995c2.475-0.64,4.587-1.216,5.995-1.621
			c5.44-1.6,10.688-3.392,15.723-5.376c14.997-5.845,27.947-13.376,39.019-22.421C436.822,355.032,414.849,392.408,384.001,420.099z
			"/>
	</g>
</g>
</svg>