<svg width="18" height="18" viewBox="0 0 18 18" fill="none" xmlns="http://www.w3.org/2000/svg">
<g clip-path="url(#clip0_1_2756)">
<path d="M5.80017 15.8397C6.08226 15.8397 6.31094 15.611 6.31094 15.3289C6.31094 15.0468 6.08226 14.8181 5.80017 14.8181C5.51808 14.8181 5.2894 15.0468 5.2894 15.3289C5.2894 15.611 5.51808 15.8397 5.80017 15.8397Z" fill="white" stroke="white" stroke-linecap="round" stroke-linejoin="round"/>
<path d="M11.4189 15.8397C11.701 15.8397 11.9297 15.611 11.9297 15.3289C11.9297 15.0468 11.701 14.8181 11.4189 14.8181C11.1368 14.8181 10.9081 15.0468 10.9081 15.3289C10.9081 15.611 11.1368 15.8397 11.4189 15.8397Z" fill="white" stroke="white" stroke-linecap="round" stroke-linejoin="round"/>
<path d="M1.71429 5.1134H3.75737L5.12623 11.9526C5.17294 12.1878 5.30087 12.399 5.48762 12.5493C5.67438 12.6997 5.90806 12.7795 6.14777 12.7749H11.1124C11.3521 12.7795 11.5858 12.6997 11.7726 12.5493C11.9593 12.399 12.0873 12.1878 12.134 11.9526L12.5426 9.80992" stroke="white" stroke-width="1.5" stroke-linecap="round" stroke-linejoin="round"/>
<path d="M7.17884 4.50626L10.1788 7.54198L15.6788 1.47055" stroke="white" stroke-width="1.5" stroke-linecap="round" stroke-linejoin="round"/>
</g>
<defs>
<clipPath id="clip0_1_2756">
<rect width="17" height="17" fill="white" transform="translate(0.5 0.256256)"/>
</clipPath>
</defs>
</svg>
