<svg width="321" height="231" viewBox="0 0 321 231" fill="none" xmlns="http://www.w3.org/2000/svg">
<g id="empty cart">
<g id="Group 2007">
<path id="Shape" d="M98.3324 32.2855C98.3324 32.1691 98.3324 32.0527 98.3324 31.9415C98.3512 21.7872 106.104 13.2624 116.352 12.1266C126.601 10.9909 136.084 17.6056 138.395 27.5017C142.499 25.2449 147.51 25.298 151.563 27.6413C155.617 29.9845 158.106 34.267 158.104 38.895C158.104 39.1914 158.104 39.4824 158.072 39.7682C164.549 42.1354 168.375 48.7303 167.155 55.4262C165.935 62.1221 160.02 66.9968 153.111 67H102.208C93.1141 66.9908 85.4823 60.2502 84.4888 51.3505C83.4953 42.4508 89.4581 34.2391 98.3324 32.2855Z" fill="#F9F9FC"/>
<path id="Shape_2" d="M223.381 124H251.991L265.381 107H236.722L223.381 124Z" fill="#E8EAF1"/>
<path id="Rectangle-path" d="M179.381 124H251.381V187H179.381V124Z" fill="#F4F6F8"/>
<path id="Rectangle-path_2" d="M179.381 124H223.381V187H179.381V124Z" fill="#E1E7ED"/>
<path id="Shape_3" d="M179.699 124L166.381 107H210.127L223.381 124H179.699Z" fill="#E8EAF1"/>
<path id="Shape_4" fill-rule="evenodd" clip-rule="evenodd" d="M241.806 138.395C241.131 138.137 240.414 138.003 239.69 138C239.257 138.002 238.825 138.046 238.4 138.132L236.67 141.102C237.381 140.719 238.179 140.527 238.987 140.544C239.48 140.543 239.972 140.61 240.447 140.744L241.806 138.395ZM231.381 146.379C231.381 150.666 235.041 154 239.315 154C243.744 154.017 247.352 150.463 247.381 146.053C247.365 143.591 246.234 141.269 244.303 139.733L242.959 142.039C244.143 143.044 244.827 144.514 244.831 146.063C244.808 149.091 242.324 151.527 239.283 151.504C236.242 151.48 233.796 149.007 233.819 145.979C233.82 145.625 233.854 145.273 233.92 144.926L231.381 146.379Z" fill="white"/>
<g id="Shape_5">
<path d="M141.381 189H204.568H287.381" fill="#8E99A4"/>
<path d="M141.381 189H204.568H287.381" stroke="#C6CBDB" stroke-width="2.4" stroke-linecap="round" stroke-linejoin="round"/>
</g>
<path id="Rectangle-path_3" d="M58.3809 167.152C58.3809 166.516 58.8966 166 59.5329 166H106.229C106.865 166 107.381 166.516 107.381 167.152V174.848C107.381 175.484 106.865 176 106.229 176H59.5329C58.8966 176 58.3809 175.484 58.3809 174.848V167.152Z" fill="#F9F9FC"/>
<g id="Shape_6">
<path d="M30.3809 188H157.381H30.3809Z" fill="#8E99A4"/>
<path d="M30.3809 188H157.381" stroke="#C6CBDB" stroke-width="2.4" stroke-linecap="round" stroke-linejoin="round"/>
</g>
<g id="_Group_">
<path id="Shape_7" d="M183.57 102.021C183.603 102.062 183.603 102.12 183.57 102.16V102.021Z" fill="#E8EAF1"/>
<path id="Shape_8" d="M183.571 134.192V193.966C183.568 206.688 173.214 217 160.443 217H83.6511C70.9427 216.997 60.6172 206.781 60.5288 194.121L60.0996 134.192L183.571 134.192Z" fill="#E8EAF1"/>
<path id="Shape_9" d="M183.57 102.165V134.192H60.0989L59.8789 102.593L183.447 102.192C183.489 102.209 183.538 102.198 183.57 102.165Z" fill="#E8EAF1"/>
<path id="Shape_10" d="M183.569 102.021V102.16C183.547 102.182 183.515 102.194 183.484 102.192L59.916 102.593L63.4461 100.92L76.7508 94.6087L63.0973 86.0688C63.0386 86.0301 63.0121 85.9578 63.0317 85.8904C63.0514 85.823 63.1128 85.7762 63.1832 85.7749L178.73 85.3741C178.784 85.3725 178.832 85.405 178.85 85.4547C178.868 85.5044 178.853 85.5602 178.811 85.5932L178.73 85.6573L167.507 94.5713L178.73 99.7551L183.527 101.968C183.549 101.977 183.566 101.997 183.569 102.021Z" fill="#E2E5ED"/>
<path id="Shape_11" d="M178.731 85.6738V99.777L167.508 94.5932L178.731 85.6738Z" fill="#E8EAF1"/>
<path id="Shape_12" d="M76.7511 94.5923L63.4464 100.898L63.0977 86.0791L76.7511 94.5923Z" fill="#E8EAF1"/>
<path id="Shape_13" d="M63.0977 86.0791L63.4464 100.898" stroke="#C5D0D9" stroke-width="2.4" stroke-linecap="round" stroke-linejoin="round"/>
<path id="Shape_14" d="M59.8789 102.593L60.0989 134.192L60.528 194.122C60.6165 206.781 70.942 216.997 83.6504 217H160.442C166.576 217.001 172.459 214.575 176.798 210.256C181.136 205.936 183.574 200.077 183.575 193.967V101.791" stroke="#C5D0D9" stroke-width="2.4" stroke-linecap="round" stroke-linejoin="round"/>
<path id="Shape_15" fill-rule="evenodd" clip-rule="evenodd" d="M63.0973 86.0688C63.0386 86.0301 63.0121 85.9578 63.0317 85.8904C63.0514 85.823 63.1128 85.7762 63.1832 85.7749L178.73 85.3741C178.784 85.3725 178.832 85.405 178.85 85.4547C178.868 85.5044 178.853 85.5602 178.811 85.5932L178.73 85.6573L167.507 94.5713L178.73 99.7551L183.527 101.968C183.543 101.973 183.556 101.985 183.564 102C183.596 102.04 183.596 102.098 183.564 102.139C183.541 102.161 183.51 102.173 183.478 102.171L59.916 102.593V102.593L63.4461 100.92L76.7508 94.6087L63.0973 86.0688Z" stroke="#C5D0D9" stroke-width="2.4" stroke-linecap="round" stroke-linejoin="round"/>
<path id="Shape_16" d="M178.73 85.6738V99.777" stroke="#C5D0D9" stroke-width="2.4" stroke-linecap="round" stroke-linejoin="round"/>
<path id="Shape_17" d="M59.8789 134.192H60.0989H183.57" stroke="#C5D0D9" stroke-width="2.4" stroke-linecap="round" stroke-linejoin="round"/>
</g>
<g id="_Group_2">
<g id="Group" style="mix-blend-mode:multiply" opacity="0.13">
<path id="Shape_18" d="M184.104 102.059H168.529C168.529 102.059 169.44 216.01 170.736 215.754C173.611 215.186 183.376 208.352 183.464 196.946L183.928 136.928L184.104 102.059Z" fill="#E8EAF1"/>
<path id="Shape_19" fill-rule="evenodd" clip-rule="evenodd" d="M168.529 102.059C168.529 102.059 169.44 216.01 170.736 215.754C173.611 215.186 183.376 208.352 183.464 196.946L183.928 136.928L184.093 102.059L168.529 102.059Z" stroke="#C5D0D9" stroke-width="2.4" stroke-linecap="round" stroke-linejoin="round"/>
</g>
</g>
<path id="Shape_20" d="M155.381 123C155.381 152.048 147.074 182 122.234 182C97.7948 182 89.3809 152.873 89.3809 123.825" stroke="#C5D0D9" stroke-width="2.4" stroke-linecap="round" stroke-linejoin="round"/>
<path id="Oval" d="M89.3809 124C92.1423 124 94.3809 121.761 94.3809 119C94.3809 116.239 92.1423 114 89.3809 114C86.6194 114 84.3809 116.239 84.3809 119C84.3809 121.761 86.6194 124 89.3809 124Z" fill="#E8EAF1" stroke="#C5D0D9" stroke-width="2.4" stroke-linecap="round" stroke-linejoin="round"/>
<path id="Oval_2" d="M155.381 123C158.142 123 160.381 120.761 160.381 118C160.381 115.239 158.142 113 155.381 113C152.619 113 150.381 115.239 150.381 118C150.381 120.761 152.619 123 155.381 123Z" fill="#E8EAF1" stroke="#C5D0D9" stroke-width="2.4" stroke-linecap="round" stroke-linejoin="round"/>
<g id="Shape_21">
<path d="M292.381 188H297.381H292.381Z" fill="#8E99A4"/>
<path d="M292.381 188H297.381" stroke="#C6CBDB" stroke-width="2.4" stroke-linecap="round" stroke-linejoin="round"/>
</g>
<g id="Shape_22">
<path d="M25.3809 188H23.3809H25.3809Z" fill="#8E99A4"/>
<path d="M25.3809 188H23.3809" stroke="#C6CBDB" stroke-width="2.4" stroke-linecap="round" stroke-linejoin="round"/>
</g>
<g id="Group_2" style="mix-blend-mode:screen" opacity="0.28">
<path id="Shape_23" d="M52.0026 56.8962V34.3062C52.0026 28.2444 57.528 23.3262 63.6346 23.3262H51.9386C45.832 23.3262 40.3066 28.2444 40.3066 34.3062V56.8962C40.3066 62.9632 45.8266 67.8762 51.9386 67.8762H63.6346C57.528 67.8762 52.0026 62.9579 52.0026 56.8962Z" fill="#FCD66D"/>
</g>
<path id="Shape_24" d="M202.634 61.6519C202.634 61.5765 202.634 61.4957 202.634 61.4203C202.642 54.5873 207.775 48.8489 214.561 48.0851C221.348 47.3213 227.627 51.7754 229.152 58.4358C231.868 56.9153 235.185 56.9494 237.869 58.5253C240.553 60.1013 242.201 62.9828 242.198 66.0963C242.198 66.2957 242.198 66.4896 242.198 66.6835C246.497 68.2669 249.04 72.7084 248.232 77.2195C247.423 81.7306 243.495 85.0105 238.914 85H205.197C199.171 85.0035 194.11 80.4678 193.452 74.4757C192.794 68.4835 196.751 62.9569 202.634 61.6519Z" fill="#F4F6F8"/>
<g id="Group 2">
<path id="Shape_25" d="M92.9742 24.8174H48.7445C43.3252 24.8174 38.4219 29.1816 38.4219 34.5604V54.6056C38.4219 59.9892 43.3205 64.3486 48.7445 64.3486H80.1573L92.0654 73.7441V64.3486H92.9742C95.5776 64.3486 98.0744 63.3221 99.9152 61.495C101.756 59.6678 102.79 57.1896 102.79 54.6056V34.5604C102.79 31.9764 101.756 29.4982 99.9152 27.6711C98.0744 25.8439 95.5776 24.8174 92.9742 24.8174V24.8174Z" fill="#FDD760" stroke="#FFC729" stroke-width="3.696"/>
<g id="Group_3" style="mix-blend-mode:screen" opacity="0.28">
<path id="Shape_26" d="M48.8013 54.6056V34.5604C48.8013 29.1816 53.7047 24.8174 59.1239 24.8174H48.7445C43.3252 24.8174 38.4219 29.1816 38.4219 34.5604V54.6056C38.4219 59.9892 43.3205 64.3486 48.7445 64.3486H59.1239C53.7047 64.3486 48.8013 59.9845 48.8013 54.6056Z" fill="#FCD66D"/>
</g>
<path id="Oval 2" fill-rule="evenodd" clip-rule="evenodd" d="M59.0529 43.6079C60.685 43.6079 62.0081 42.2911 62.0081 40.6668C62.0081 39.0424 60.685 37.7256 59.0529 37.7256C57.4208 37.7256 56.0977 39.0424 56.0977 40.6668C56.0977 42.2911 57.4208 43.6079 59.0529 43.6079Z" fill="#FFC729"/>
<path id="Oval 2 Copy" fill-rule="evenodd" clip-rule="evenodd" d="M78.7541 43.6079C80.3862 43.6079 81.7093 42.2911 81.7093 40.6668C81.7093 39.0424 80.3862 37.7256 78.7541 37.7256C77.1219 37.7256 75.7988 39.0424 75.7988 40.6668C75.7988 42.2911 77.1219 43.6079 78.7541 43.6079Z" fill="#FFC729"/>
<g id="Shape_27">
<path d="M62.8242 53.0457C67.5572 48.99 72.3028 48.99 77.061 53.0457H62.8242Z" fill="#FDD760"/>
<path d="M62.8242 53.0457C67.5572 48.99 72.3028 48.99 77.061 53.0457" stroke="#FFC729" stroke-width="3.696" stroke-linecap="round"/>
</g>
<path id="Shape_28" fill-rule="evenodd" clip-rule="evenodd" d="M92.9742 24.8174H48.7445C43.3252 24.8174 38.4219 29.1816 38.4219 34.5604V54.6056C38.4219 59.9892 43.3205 64.3486 48.7445 64.3486H80.1573L92.0654 73.7441V64.3486H92.9742C95.5776 64.3486 98.0744 63.3221 99.9152 61.495C101.756 59.6678 102.79 57.1896 102.79 54.6056V34.5604C102.79 31.9764 101.756 29.4982 99.9152 27.6711C98.0744 25.8439 95.5776 24.8174 92.9742 24.8174V24.8174Z" stroke="#FFC729" stroke-width="3.696"/>
</g>
</g>
</g>
</svg>
