<svg xmlns="http://www.w3.org/2000/svg" width="35" height="30" viewBox="0 0 42.96 39.38"><defs><style>.a{fill:#4533e0;}</style></defs><path 
fill='white'

d="M37.59,7.16V5.37A5.375,5.375,0,0,0,32.22,0H5.37A5.375,5.375,0,0,0,0,5.37V34.01a5.375,5.375,0,0,0,5.37,5.37H37.59a5.375,5.375,0,0,0,5.37-5.37V12.53A5.375,5.375,0,0,0,37.59,7.16ZM5.37,3.58H32.22a1.792,1.792,0,0,1,1.79,1.79V7.16H5.37a1.79,1.79,0,0,1,0-3.58ZM37.59,35.8H5.37a1.792,1.792,0,0,1-1.79-1.79V10.433a5.351,5.351,0,0,0,1.79.307H37.59a1.792,1.792,0,0,1,1.79,1.79v4.475H29.535a6.265,6.265,0,0,0,0,12.53H39.38V34.01a1.792,1.792,0,0,1-1.79,1.79Zm1.79-9.845H35.192a6.206,6.206,0,0,0,0-5.37H39.38ZM26.85,23.27a2.69,2.69,0,1,1,2.685,2.685A2.689,2.689,0,0,1,26.85,23.27Zm0,0"/></svg>