<?xml version="1.0" encoding="UTF-8"?>
<svg version="1.1" xmlns="http://www.w3.org/2000/svg" width="512" height="512">
<path d="M0 0 C1.13949968 -0.00256327 2.27899936 -0.00512655 3.45302933 -0.0077675 C7.2794727 -0.01271732 11.10552339 0.00380788 14.93193054 0.02018738 C17.67155203 0.02270315 20.41116578 0.02069118 23.15078735 0.01885986 C29.05319614 0.01728703 34.95550542 0.0266972 40.85788918 0.04357338 C49.39172185 0.06795755 57.92550642 0.07576805 66.45937016 0.07953735 C80.3050686 0.08610275 94.15071402 0.10606632 107.99638367 0.13444519 C121.44592524 0.16198347 134.89545241 0.18321818 148.34501648 0.19596863 C149.17408763 0.1967568 150.00315879 0.19754497 150.85735331 0.19835702 C155.01657185 0.20227214 159.1757905 0.20606327 163.33500922 0.20979273 C197.83830176 0.2408914 232.34153133 0.29372961 266.84477234 0.36076355 C266.85285919 1.47274612 266.86094604 2.5847287 266.86927795 3.73040771 C266.94683582 14.22093939 267.03459948 24.7113429 267.13229942 35.20170689 C267.1821988 40.59462484 267.22852946 45.98752382 267.26664734 51.38053894 C267.30358036 56.58720659 267.3499622 61.79371292 267.40283585 67.00024223 C267.42133719 68.98447267 267.4364608 70.96873764 267.4481163 72.9530201 C267.46505168 75.73696967 267.49410429 78.52055323 267.52592468 81.30436707 C267.52808487 82.1207666 267.53024506 82.93716614 267.5324707 83.77830505 C267.62114619 89.87003507 268.17768378 95.21736397 272.03227234 100.17326355 C278.48361674 105.19097586 285.80478367 104.64560955 293.63237 104.61613464 C294.80244598 104.6197551 295.97252197 104.62337555 297.17805481 104.62710571 C299.7125076 104.63398492 302.24697515 104.63650792 304.78143692 104.63515854 C308.80146484 104.63419079 312.82122401 104.64674421 316.84120178 104.66413879 C328.26896049 104.71099311 339.69670691 104.73508272 351.1245575 104.74162292 C357.44456337 104.7453924 363.76437226 104.76357265 370.08429372 104.79671729 C373.41983562 104.81350184 376.75471087 104.82045771 380.09033585 104.81377792 C383.82079105 104.80665952 387.55042933 104.82408983 391.2808075 104.84660339 C392.90538879 104.83434471 392.90538879 104.83434471 394.56278992 104.82183838 C408.66769889 104.97215651 422.04119998 110.06031331 432.65727234 119.42326355 C438.90464392 126.14647916 443.94122655 136.6354426 443.99194336 145.86354065 C444.00267632 147.20925392 444.00267632 147.20925392 444.0136261 148.58215332 C444.01765945 150.04723579 444.01765945 150.04723579 444.02177429 151.54191589 C444.02834549 152.57649429 444.03491669 153.61107269 444.04168701 154.67700195 C444.06139637 158.10023573 444.07307581 161.52342574 444.08305359 164.94670105 C444.08712912 166.11602802 444.09120464 167.285355 444.09540367 168.49011612 C444.11625174 174.67616346 444.13056041 180.86218869 444.13993835 187.04826355 C444.15101567 193.43967264 444.18543482 199.83073483 444.22511005 206.2220211 C444.25123682 211.1359472 444.25962658 216.04979 444.26321983 220.96377945 C444.26809392 223.32010371 444.27973117 225.67642405 444.29825783 228.03268051 C444.3225704 231.32900919 444.32169857 234.62443151 444.31474304 237.92082214 C444.3275531 238.89349533 444.34036316 239.86616852 444.3535614 240.86831665 C444.30878307 246.69005179 443.67072905 249.90060978 439.84477234 254.36076355 C435.79043722 257.6594924 432.49196151 257.71511242 427.35649109 257.6537323 C426.65329239 257.64948746 425.95009369 257.64524261 425.22558594 257.64086914 C422.99408103 257.62416415 420.76350121 257.58652969 418.53227234 257.54826355 C417.01340524 257.53320602 415.49452388 257.51951949 413.97563171 257.50724792 C410.265048 257.47428828 406.55500056 257.42256371 402.84477234 257.36076355 C402.71207947 258.43600281 402.5793866 259.51124207 402.44267273 260.61906433 C401.97217484 263.56347045 401.54845496 265.6041521 400.27836609 268.22795105 C399.96206238 268.8815863 399.64575867 269.53522156 399.31987 270.20866394 C398.80625916 271.21207825 398.80625916 271.21207825 398.28227234 272.23576355 C397.92439636 272.93757751 397.56652039 273.63939148 397.19779968 274.36247253 C390.15589201 287.70138175 378.92416306 296.18280581 364.84477234 301.36076355 C348.75855955 306.20191523 332.03394968 304.10125683 317.15727234 296.67326355 C304.13777438 289.0848643 295.34254268 277.94051213 290.43852234 263.73576355 C289.84477234 261.36076355 289.84477234 261.36076355 289.84477234 257.36076355 C239.68477234 257.36076355 189.52477234 257.36076355 137.84477234 257.36076355 C137.51477234 259.67076355 137.18477234 261.98076355 136.84477234 264.36076355 C136.12382507 266.48136902 136.12382507 266.48136902 135.27836609 268.22795105 C134.96206238 268.8815863 134.64575867 269.53522156 134.31987 270.20866394 C133.80625916 271.21207825 133.80625916 271.21207825 133.28227234 272.23576355 C132.92439636 272.93757751 132.56652039 273.63939148 132.19779968 274.36247253 C125.15589201 287.70138175 113.92416306 296.18280581 99.84477234 301.36076355 C83.75855955 306.20191523 67.03394968 304.10125683 52.15727234 296.67326355 C39.13777438 289.0848643 30.34254268 277.94051213 25.43852234 263.73576355 C24.84477234 261.36076355 24.84477234 261.36076355 24.84477234 257.36076355 C23.78564636 257.38171082 22.72652039 257.40265808 21.63529968 257.42424011 C17.68817277 257.4968974 13.74110442 257.54265609 9.79350281 257.58049011 C8.0883234 257.60054724 6.38321228 257.62780012 4.67826843 257.66252136 C2.22057709 257.71130216 -0.23620133 257.73379074 -2.69429016 257.75138855 C-3.4507785 257.77203369 -4.20726685 257.79267883 -4.98667908 257.81394958 C-10.15241884 257.81611633 -13.10903033 256.8429455 -17.15522766 253.36076355 C-21.44485047 248.68871283 -20.5329774 242.68313179 -20.44819641 236.7162323 C-20.44395157 235.59130875 -20.43970673 234.46638519 -20.43533325 233.30737305 C-20.41856456 229.72075793 -20.38091454 226.13470834 -20.34272766 222.54826355 C-20.32767853 220.11402688 -20.31399053 217.67978139 -20.30171204 215.24552917 C-20.26866691 209.28374826 -20.21848494 203.32229632 -20.15522766 197.36076355 C-21.30523254 197.38171082 -22.45523743 197.40265808 -23.64009094 197.42424011 C-27.92267822 197.49685418 -32.20521149 197.54264084 -36.48823547 197.58049011 C-38.33891462 197.60055694 -40.18953075 197.627817 -42.03999329 197.66252136 C-44.70616743 197.71125788 -47.37150053 197.73378142 -50.03804016 197.75138855 C-50.86014984 197.77203369 -51.68225952 197.79267883 -52.52928162 197.81394958 C-57.89215129 197.81602588 -60.89537169 196.91547792 -65.15522766 193.36076355 C-69.21153164 188.13816498 -68.9292031 182.70736213 -68.15522766 176.36076355 C-65.96963057 171.74672524 -63.65992961 169.62866891 -59.15522766 167.36076355 C-56.36307907 166.98438263 -56.36307907 166.98438263 -53.26161194 166.98222351 C-52.08134933 166.97402084 -50.90108673 166.96581818 -49.68505859 166.95736694 C-47.75555107 166.96658928 -47.75555107 166.96658928 -45.7870636 166.97599792 C-44.41177928 166.97189051 -43.03649844 166.96642863 -41.66122437 166.9597168 C-38.70377366 166.94800471 -35.74650952 166.94550289 -32.78903961 166.95007324 C-28.10658282 166.95689377 -23.42437047 166.94099499 -18.74195862 166.92167664 C-8.7963948 166.88383453 1.14914759 166.87103118 11.09477234 166.86076355 C21.81913861 166.84968075 32.54339184 166.83422559 43.26768088 166.79005098 C47.91586822 166.77175687 52.56377524 166.76778031 57.21198988 166.77498627 C60.11327414 166.77651542 63.01442007 166.76567809 65.91566658 166.75160789 C67.88793644 166.74574067 69.86023325 166.75467379 71.83248901 166.76416016 C78.48399618 166.71837066 84.8496767 166.54956437 90.84477234 163.36076355 C94.15402666 159.63785243 95.74487661 156.35554988 95.84477234 151.36076355 C94.91195597 146.73255928 93.60528483 144.00554588 89.96977234 140.92326355 C85.27043522 138.57359499 81.14051497 138.23583695 75.93096924 138.22946167 C74.74637115 138.22545349 73.56177307 138.22144531 72.34127808 138.21731567 C71.05022659 138.21784439 69.75917511 138.21837311 68.42900085 138.21891785 C67.04885243 138.21588412 65.668705 138.21236207 64.28855896 138.20838928 C61.32133435 138.20051728 58.35412168 138.19536183 55.3868885 138.19209862 C50.6927131 138.18617542 45.99861297 138.16962348 41.30447388 138.15075684 C39.69581322 138.14442001 38.08715252 138.13809438 36.47849178 138.13177967 C35.67304829 138.12861386 34.86760481 138.12544805 34.03775394 138.1221863 C23.11333249 138.08014294 12.1889471 138.04712533 1.26445007 138.03483582 C-6.1105943 138.02645417 -13.48545114 138.00396297 -20.86040169 137.96548015 C-24.76069298 137.94572911 -28.66070401 137.93331183 -32.56104851 137.93831444 C-36.22939359 137.94296261 -39.89720703 137.92914711 -43.56544495 137.90130234 C-45.5490079 137.89110667 -47.53264169 137.90063883 -49.51620483 137.91079712 C-60.39791235 137.79654136 -60.39791235 137.79654136 -65.15522766 133.36076355 C-69.21153164 128.13816498 -68.9292031 122.70736213 -68.15522766 116.36076355 C-65.98290471 111.77474844 -63.71713939 109.48953729 -59.15522766 107.36076355 C-56.03900215 106.92834564 -52.95228573 106.95395753 -49.81025696 106.97599792 C-48.87628082 106.97062515 -47.94230469 106.96525238 -46.98002625 106.9597168 C-44.95573684 106.94994765 -42.93140559 106.94699203 -40.90709496 106.95007324 C-37.69922333 106.95455578 -34.49190207 106.94053729 -31.28408813 106.92167664 C-24.47031029 106.8849031 -17.65659012 106.87119073 -10.84272766 106.86076355 C-2.95542493 106.84867328 4.9316098 106.82705409 12.81879234 106.78076172 C15.97179148 106.76722293 19.12444918 106.77135725 22.27746582 106.77616882 C24.22218759 106.76682364 26.16690563 106.75665367 28.11161804 106.74552917 C28.98202225 106.7516774 29.85242645 106.75782562 30.74920654 106.76416016 C36.43166263 106.70731326 40.66386946 105.74683275 45.84477234 103.36076355 C49.34685455 99.76888436 50.74672454 97.09294132 51.03227234 92.04826355 C50.84298723 88.32565644 50.48007571 85.70924188 48.84477234 82.36076355 C43.13892944 79.03235519 36.16701456 79.2142933 29.73149109 79.21891785 C28.9404599 79.21544342 28.14942871 79.21196899 27.33442688 79.20838928 C25.62553094 79.20106701 23.91662572 79.19570294 22.2077179 79.19209862 C19.50031432 79.1848973 16.79308822 79.16920539 14.08573914 79.15075684 C6.39118309 79.0984458 -1.30327083 79.05029161 -8.9980011 79.03483582 C-13.71243588 79.02474765 -18.42641582 78.99541005 -23.14067078 78.95351601 C-24.93313659 78.94122129 -26.72566663 78.93608196 -28.51817322 78.93831444 C-31.02659127 78.94067091 -33.5337049 78.91847876 -36.04194641 78.89079285 C-36.77770905 78.89739426 -37.51347168 78.90399567 -38.27153015 78.91079712 C-43.35322002 78.81891419 -46.23167944 77.54297727 -50.15522766 74.36076355 C-54.21153164 69.13816498 -53.9292031 63.70736213 -53.15522766 57.36076355 C-50.9703408 52.74822462 -48.65943082 50.6276536 -44.15522766 48.36076355 C-41.38447571 48.02018738 -41.38447571 48.02018738 -38.41694641 48.0677948 C-36.81689758 48.08229675 -36.81689758 48.08229675 -35.18452454 48.09709167 C-33.53033508 48.13479675 -33.53033508 48.13479675 -31.84272766 48.17326355 C-30.72059875 48.18679871 -29.59846985 48.20033386 -28.44233704 48.21427917 C-25.67947537 48.24954975 -22.91759937 48.2988412 -20.15522766 48.36076355 C-20.17617493 47.21075867 -20.19712219 46.06075378 -20.21870422 44.87590027 C-20.29131829 40.59331299 -20.33710495 36.31077972 -20.37495422 32.02775574 C-20.39502105 30.17707659 -20.42228112 28.32646046 -20.45698547 26.47599792 C-20.50572199 23.80982378 -20.52824554 21.14449068 -20.54585266 18.47795105 C-20.5664978 17.65584137 -20.58714294 16.83373169 -20.6084137 15.98670959 C-20.61048341 10.64085889 -19.8036184 7.53469073 -16.15522766 3.36076355 C-11.33164768 -0.70736008 -5.98248804 -0.04898994 0 0 Z M58.43852234 231.07951355 C53.69081714 237.87524844 54.17583503 245.40972386 54.84477234 253.36076355 C56.66786736 260.3802252 61.91627977 265.70785722 67.80570984 269.6849823 C74.91429199 273.45068103 83.5629385 273.79585988 91.27445984 271.7006073 C98.55824233 268.42715641 104.26771901 262.34627545 107.18461609 254.94670105 C109.13035315 247.32493814 108.84082167 239.37842806 105.16899109 232.3568573 C101.21361915 226.39462999 95.86263811 221.28191843 88.84477234 219.36076355 C75.54275107 217.67615871 67.07254305 221.0300796 58.43852234 231.07951355 Z M323.43852234 231.07951355 C318.69081714 237.87524844 319.17583503 245.40972386 319.84477234 253.36076355 C321.66786736 260.3802252 326.91627977 265.70785722 332.80570984 269.6849823 C339.91429199 273.45068103 348.5629385 273.79585988 356.27445984 271.7006073 C363.55824233 268.42715641 369.26771901 262.34627545 372.18461609 254.94670105 C374.13035315 247.32493814 373.84082167 239.37842806 370.16899109 232.3568573 C366.21361915 226.39462999 360.86263811 221.28191843 353.84477234 219.36076355 C340.54275107 217.67615871 332.07254305 221.0300796 323.43852234 231.07951355 Z " fill="white" transform="translate(68.15522766113281,103.63923645019531)"/>
<path d="M0 0 C5.7876269 0.72345336 10.32748699 1.52212923 15.625 3.5625 C16.31231201 3.82571045 16.99962402 4.0889209 17.70776367 4.36010742 C29.43664839 9.01472631 39.59683449 15.55971864 49 24 C49.67160156 24.58910156 50.34320313 25.17820313 51.03515625 25.78515625 C61.40918198 35.47752115 69.15699673 48.00283157 76.75 59.875 C77.37084473 60.84453613 77.99168945 61.81407227 78.63134766 62.81298828 C79.48672119 64.17012939 79.48672119 64.17012939 80.359375 65.5546875 C80.86952148 66.36405762 81.37966797 67.17342773 81.90527344 68.00732422 C83 70 83 70 83 72 C55.61 72 28.22 72 0 72 C0 48.24 0 24.48 0 0 Z " fill="white" transform="translate(365,107)"/>
</svg>
